<svg xmlns="http://www.w3.org/2000/svg" xmlns:xlink="http://www.w3.org/1999/xlink" version="1.1" width="1000" height="1000" viewBox="0 0 1000 1000" xml:space="preserve">
<desc>Created with Fabric.js 3.5.0</desc>
<defs>
</defs>
<rect x="0" y="0" width="100%" height="100%" fill="#FEFEFE  "/>
<g transform="matrix(1.1984 0 0 1.1984 519.2405 523.2891)" id="32170">
<g style="" vector-effect="non-scaling-stroke">
		<g transform="matrix(1 0 0 1 -450 -450)">
<rect style="stroke: none; stroke-width: 1; stroke-dasharray: none; stroke-linecap: butt; stroke-dashoffset: 0; stroke-linejoin: miter; stroke-miterlimit: 4; is-custom-font: none; font-file-url: none; fill: rgb(255,255,255); fill-rule: nonzero; opacity: 1;" x="-50" y="-50" rx="0" ry="0" width="100" height="100" fill = "#EAECEE"/>
</g>
		<g transform="matrix(8.6572 0 0 8.6572 -0.0019 -67.1401)" id="112451">
<path style="stroke: rgb(0,0,0); stroke-width: 0.15; stroke-dasharray: none; stroke-linecap: butt; stroke-dashoffset: 0; stroke-linejoin: miter; stroke-miterlimit: 4; is-custom-font: none; font-file-url: none; fill: rgb(0,0,0); fill-rule: nonzero; opacity: 1;" vector-effect="non-scaling-stroke" transform=" translate(-50, -50)" d="M 72.2163086 62.1334801 l -1.3272705 -0.4064941 c 0.005188 -0.0708618 0.026001 -0.1315918 0.026001 -0.2053223 c 0 -3.0400391 -4.3695679 -5.6710205 -11.4724731 -6.9703979 l 0.7229614 -0.6199341 c 2.5322266 -2.1767578 3.984375 -5.340332 3.984375 -8.6796875 v -0.9799805 h 0.6899414 c 2.4482422 0 4.4404297 -1.9916992 4.4404297 -4.4399414 v -2.0898438 c 0 -0.8046875 -0.3168945 -1.5717773 -0.9018555 -2.1689453 c -0.302063 -0.2928467 -0.6552734 -0.5183105 -1.0307617 -0.6680298 c 0.3466187 -2.2820435 -0.1222534 -4.6513672 -0.628418 -7.1522827 l -0.1088867 -0.5400391 c -1.6943359 -8.359375 -11.3720703 -10.7006836 -16.2529297 -10.7709961 c -3.5136719 -0.0507813 -9.9990234 0.4462891 -13.9731445 4.362793 c -2.0664063 2.0361328 -3.1142578 4.6865234 -3.1142578 7.8774414 c 0 2.5025635 0.1448364 4.4528809 0.2625122 6.024292 c -0.7183228 0.0582886 -1.3955078 0.3529663 -1.9299927 0.8760986 c -0.5756836 0.5878906 -0.8925781 1.3549805 -0.8925781 2.159668 v 2.0898438 c 0 2.4482422 1.9916992 4.4399414 4.4399414 4.4399414 h 0.6899414 v 0.9799805 c 0 3.3393555 1.4521484 6.5029297 3.9853516 8.6806641 l 0.7268066 0.6213989 c -7.0998535 1.2999268 -11.467041 3.9290161 -11.467041 6.9679565 c 0 0.0720215 0.0075073 0.1380005 0.0122681 0.2064819 l -1.328186 0.4067993 C 22.8232422 63.6998863 19.5 68.2316208 19.5 73.4117966 v 9.6499023 c 0 0.2763672 0.2236328 0.5 0.5 0.5 h 60 c 0.2763672 0 0.5 -0.2236328 0.5 -0.5 v -9.6499023 C 80.5 68.2301559 77.1728516 63.6984215 72.2163086 62.1334801 z M 66.6787109 35.7389488 c 0.3774414 0.0864258 0.715332 0.2719727 0.9941406 0.5424805 c 0.3916016 0.3999023 0.6074219 0.9189453 0.6074219 1.4604492 v 2.0898438 c 0 1.8969727 -1.543457 3.4399414 -3.4404297 3.4399414 h -0.5981445 c 0.0007324 -0.0060425 0.0009155 -0.0135498 0.0015869 -0.0195923 c 0.0043945 -0.0383301 0.0061035 -0.0841064 0.0100098 -0.1237183 c 0.0186157 -0.1882935 0.0323486 -0.390686 0.0404663 -0.6080933 c 0.0031738 -0.0845337 0.0043945 -0.1740723 0.0059814 -0.2630005 c 0.00354 -0.1986084 0.0029907 -0.4083862 -0.0014648 -0.62854 c -0.0018921 -0.0923462 -0.0028076 -0.1820068 -0.0061035 -0.2781372 c -0.0108032 -0.3178711 -0.0267334 -0.6495972 -0.0529175 -1.0081177 c 0 -0.0002441 -0.000061 -0.0004883 -0.000061 -0.0007324 c -0.000061 -0.0014038 -0.0003052 -0.0026855 -0.0003662 -0.0040894 c -0.0202026 -0.345459 -0.0499878 -0.6918945 -0.0889282 -1.0466309 v -1.5491333 c 0 -1.1357422 0.9243164 -2.0600586 2.0600586 -2.0600586 C 66.3798828 35.6818199 66.5239258 35.6989098 66.6787109 35.7389488 z M 35.8398438 43.2716637 h -0.6899414 c -1.8969727 0 -3.4399414 -1.5429688 -3.4399414 -3.4399414 v -2.0898438 c 0 -0.5415039 0.2158203 -1.0605469 0.5996094 -1.4526367 c 0.4003906 -0.3916016 0.9228516 -0.6074219 1.4707031 -0.6074219 l 0.2265625 0.0058594 c 0.1518555 0.0192261 0.2985229 0.0557861 0.43927 0.1053467 c 0.0463257 0.0162964 0.0878296 0.0419312 0.1326904 0.0613403 c 0.0913086 0.0395508 0.1827393 0.0789795 0.2670288 0.1308594 c 0.0487671 0.0300293 0.0916634 0.0683594 0.1377563 0.1022949 c 0.0723877 0.0533447 0.1450806 0.1063232 0.210144 0.1688843 c 0.0444336 0.0427856 0.0823975 0.0922241 0.1230469 0.1390991 c 0.045166 0.052063 0.0888062 0.1054688 0.1289063 0.1623535 c 0.0200806 0.6117554 0.0483398 1.2225342 0.085083 1.8192749 c 0.0400391 0.784668 0.0908203 1.5297852 0.1411133 2.1660156 c 0.0021362 0.0254517 0.0041504 0.0480957 0.0062256 0.0731812 c -0.0669556 -0.130127 -0.1832886 -0.2330933 -0.3377686 -0.2645874 c -0.1630859 -0.0332031 -0.2905273 -0.1958008 -0.2905273 -0.3701172 c 0 -0.2763672 -0.2236328 -0.5 -0.5 -0.5 s -0.5 0.2236328 -0.5 0.5 c 0 0.6533203 0.4584961 1.2207031 1.090332 1.3496094 c 0.0336914 0.0068359 0.0673828 0.0102539 0.1005859 0.0102539 c 0.2150269 0 0.4030151 -0.142334 0.4695435 -0.3499756 c 0.0057373 0.0651245 0.0113525 0.1268921 0.0168457 0.1882935 c 0.0014648 0.0165405 0.0029907 0.0333252 0.0044556 0.0496216 c 0.0175781 0.1940308 0.0336304 0.364624 0.0481567 0.5144653 c 0.0003662 0.0037842 0.0007324 0.007019 0.0010376 0.0107422 c 0.0303345 0.3131714 0.052124 0.5202026 0.059082 0.5847778 V 43.2716637 z M 36.7982178 31.6058922 c -0.0024414 -0.0040283 -0.012146 -0.0198364 -0.0135498 -0.0222168 c -0.0864258 -0.168457 -0.2329102 -0.2543945 -0.449707 -0.2719727 c -0.1894531 0.0019531 -0.3618164 0.1108398 -0.4448242 0.28125 c -0.296875 0.6098633 -0.4462891 1.7592773 -0.4594727 3.574707 c -0.1968384 -0.1271973 -0.4122314 -0.2233276 -0.6348267 -0.3034668 c -0.0132446 -0.0047607 -0.0263672 -0.0093994 -0.0396729 -0.013916 c -0.0722656 -0.0249023 -0.1417236 -0.0560913 -0.2161255 -0.0756836 l -0.0078125 -0.1074219 c -0.1166992 -1.5605469 -0.262207 -3.5024414 -0.262207 -5.9853516 c 0 -2.9130859 0.9472656 -5.3242188 2.815918 -7.1655273 c 3.7148438 -3.6601563 9.9003906 -4.1166992 13.2568359 -4.074707 c 3.7011719 0.0532227 13.6616211 1.9477539 15.2871094 9.96875 l 0.109375 0.5405273 c 0.4824219 2.3833008 0.9399414 4.644043 0.640625 6.7353516 c -0.0551758 -0.0029297 -0.1123047 -0.0043945 -0.1699219 -0.0043945 c -0.2370605 0 -0.465332 0.0331421 -0.6870117 0.0843506 c -0.0707397 0.0163574 -0.1361084 0.0426025 -0.204895 0.0637207 c -0.1481934 0.0455322 -0.2919922 0.0976563 -0.4296875 0.1642456 c -0.0726929 0.0351563 -0.1413574 0.0740356 -0.2107544 0.114563 c -0.1263428 0.0738525 -0.2451782 0.1558838 -0.3592529 0.24646 c -0.060791 0.0482178 -0.1213379 0.0944214 -0.1782227 0.1470947 c -0.1187134 0.1098022 -0.2247314 0.2304688 -0.3248901 0.357666 c -0.0291138 0.0369263 -0.0671387 0.0658569 -0.0945435 0.104126 c -0.0005493 -0.003418 -0.0010376 -0.0065308 -0.0015869 -0.0099487 c -0.0286255 -0.1834106 -0.0569458 -0.3598022 -0.0848389 -0.5308228 c -0.0038452 -0.0236206 -0.0076294 -0.0463257 -0.0114746 -0.0697021 c -0.0244141 -0.1488037 -0.0482178 -0.291626 -0.0715332 -0.428833 c -0.0050049 -0.029541 -0.0100098 -0.059021 -0.0149536 -0.0880127 c -0.0256348 -0.1497803 -0.050354 -0.2928467 -0.0738525 -0.4257813 c -0.0002441 -0.0011597 -0.0004272 -0.0024414 -0.0006104 -0.0036011 c -0.0490112 -0.27771 -0.0921631 -0.5135498 -0.1275024 -0.7025146 c -0.0048218 -0.0258789 -0.0089111 -0.0475464 -0.0134277 -0.0715942 c -0.0129395 -0.0688477 -0.0244141 -0.1293945 -0.0344849 -0.1820068 c -0.003479 -0.0182495 -0.0061035 -0.0321045 -0.0092163 -0.0482788 c -0.0077515 -0.0404053 -0.013916 -0.0720825 -0.0192871 -0.0995483 c -0.003479 -0.0178223 -0.0061646 -0.0316162 -0.0085449 -0.0437622 c -0.0053711 -0.0273438 -0.008728 -0.0440674 -0.0091553 -0.0460815 c -0.0356445 -0.1787109 -0.1655273 -0.3232422 -0.3388672 -0.378418 c -0.1733398 -0.0541992 -0.3632813 -0.0117188 -0.4951172 0.1132813 c -1.734375 1.6417847 -1.425293 4.1107178 -1.0598755 5.4997559 c -0.0326538 -0.0147705 -0.0651855 -0.0296631 -0.0979004 -0.0449829 c -0.2925415 -0.1369019 -0.5869141 -0.2885742 -0.8832397 -0.4657593 c -0.0219116 -0.0131226 -0.0440063 -0.0288086 -0.06604 -0.0421143 c -0.2839966 -0.1725464 -0.5692749 -0.3664551 -0.8546753 -0.574585 c -0.0549316 -0.0400391 -0.1097412 -0.078125 -0.1646729 -0.1194458 c -0.2918091 -0.2196045 -0.5834961 -0.4580078 -0.8743286 -0.7131348 c -0.0595703 -0.0522461 -0.1189575 -0.1069946 -0.1784058 -0.1606445 c -0.300415 -0.2713013 -0.6001587 -0.5547485 -0.8968506 -0.8623047 c -0.0001221 -0.0001221 -0.0001221 -0.0001221 -0.0002441 -0.0002441 c -1.7470703 -1.8149414 -2.8720093 -3.6454468 -2.8832397 -3.6635132 c -0.0497437 -0.0814819 -0.1219482 -0.1404419 -0.2036133 -0.1815796 c -0.0267334 -0.0135498 -0.0557861 -0.0134888 -0.0846558 -0.0220947 c -0.0460205 -0.0137939 -0.0894775 -0.0360718 -0.1384888 -0.0360718 c -0.0268555 0 -0.0537109 0.0024414 -0.0810547 0.0068359 c -0.2006836 0.0327148 -0.3618164 0.184082 -0.4067383 0.3828125 c -0.1665039 0.7353516 0.0908203 2.0927734 0.7636719 4.0292969 c 0.1757202 0.5236816 0.3577271 1.0180054 0.5183105 1.4373779 c -0.4677734 -0.2637939 -0.9174194 -0.5637817 -1.3572998 -0.8803711 c -0.1697388 -0.1222534 -0.3427734 -0.2393799 -0.5076904 -0.3690186 c -0.0001221 -0.0001221 -0.0003662 -0.000061 -0.0004883 -0.0001831 c -0.0007935 -0.0006104 -0.0016479 -0.0011597 -0.0024414 -0.00177 c -3.0136719 -2.3369141 -4.296875 -5.1601563 -4.309082 -5.1879883 c -0.0717773 -0.1606445 -0.222168 -0.2719727 -0.3964844 -0.2929688 c -0.1738281 -0.0195313 -0.3466797 0.0507813 -0.4550781 0.1889648 c -1.1186523 1.4365234 -0.8652344 4.1352539 -0.4575195 6.1386719 c 0.015564 0.0813599 0.0307007 0.1607056 0.0462646 0.2376709 c -0.5853882 -0.4901733 -1.1854858 -1.0805054 -1.793335 -1.7650146 c -1.7255859 -1.909668 -2.9624023 -3.9155273 -2.9746094 -3.9355469 c -0.0849609 -0.1386719 -0.2319336 -0.2270508 -0.394043 -0.237793 c -0.1645508 -0.0097656 -0.3193359 0.0581055 -0.4213867 0.1850586 c -0.6606445 0.8183594 -0.7250977 2.2714844 -0.1958008 4.4467773 c 0.1044922 0.4106445 0.2285156 0.8398438 0.375 1.2944336 c -0.515625 -0.3740234 -1.0214844 -0.7910156 -1.5146484 -1.2480469 c -0.2856445 -0.258728 -0.5560913 -0.5197754 -0.8108521 -0.7787476 c -0.0098267 -0.0100098 -0.0179443 -0.0196533 -0.027771 -0.0296631 c -1.2537231 -1.2797852 -2.1240234 -2.5043945 -2.5447998 -3.1437988 c -0.1651001 -0.2514038 -0.2572632 -0.4069214 -0.270874 -0.4301147 C 36.8005371 31.607357 36.7989502 31.6071129 36.7982178 31.6058922 z M 42.6791992 38.8942223 c 0.1806641 0.1040039 0.3964844 0.0429688 0.5581055 -0.09375 c 0.1616211 -0.137207 0.2036133 -0.4033203 0.128418 -0.6010742 c -0.1508789 -0.3990479 -0.2835693 -0.784729 -0.4068604 -1.1621704 c -0.0360107 -0.1100464 -0.0684204 -0.217041 -0.1019287 -0.3251343 c -0.0426025 -0.1372681 -0.0768433 -0.2667847 -0.1154785 -0.4003906 h 2.1584473 c 0.0258789 -0.0004883 0.0507813 -0.0009766 0.078125 0 c 0.12677 0.1400757 0.2526855 0.2652588 0.3790283 0.3977051 c 0.1030884 0.1080322 0.2063599 0.2213745 0.309082 0.3242798 c 0.1574707 0.1577759 0.3137817 0.3013916 0.4702759 0.4469604 c 0.0958252 0.0891724 0.1921387 0.1848755 0.2875366 0.2694702 c 0.1676025 0.1484985 0.3336792 0.28125 0.4998169 0.4154053 c 0.0830688 0.0671387 0.1670532 0.1419678 0.2497559 0.2054443 c 0.2472534 0.1896973 0.4926758 0.3641357 0.7356567 0.520813 c 0.1748047 0.1142578 0.4023438 0.105957 0.5708008 -0.0200195 c 0.0253906 -0.0185547 0.0483398 -0.0400391 0.0693359 -0.0625 c 0.1682129 0.4318848 0.2567139 0.8939819 0.2590332 1.3641357 c -0.0001221 0.0046997 -0.0026855 0.008606 -0.0026855 0.0133057 c 0 0.0060425 0.0032349 0.0111084 0.003418 0.0170898 c -0.0007324 0.192749 -0.0181274 0.3766479 -0.0444336 0.5678711 c -0.1782227 1.2661133 -0.7836914 2.3764648 -1.753418 3.2128906 c -0.9448242 0.8237305 -2.1630859 1.2773438 -3.4311523 1.2773438 h -1.25 c -1.8833008 0 -3.5019531 -1.4018555 -3.765625 -3.2626953 l -0.1791992 -1.2290039 c -0.2148438 -1.4951172 0.4375 -2.9443359 1.6767578 -3.7861328 c 0.2492676 0.2217407 0.5083008 0.4145508 0.7640381 0.6173706 c 0.1489868 0.118103 0.2936401 0.2476807 0.4445801 0.3591919 C 41.7330322 38.3024254 42.2026367 38.6174889 42.6791992 38.8942223 z M 42.2836914 32.8839684 c 0.4121094 0.6065063 1.0474854 1.4894409 1.8268433 2.4277344 h -1.6265869 C 42.2362061 34.1591148 42.2079468 33.3796349 42.2836914 32.8839684 z M 48.2889404 36.6967735 c -0.3673096 -1.8675537 -0.3995361 -3.4158325 -0.0955811 -4.4246216 c 0.5875854 1.0014648 1.7603149 2.6937256 3.6481323 4.2784424 c -0.9163818 0.8087769 -1.493103 1.9252319 -1.6201172 3.1361084 h -0.4660034 C 49.6339111 38.5542564 49.1248779 37.4973717 48.2889404 36.6967735 z M 51.1907959 40.1838341 c 0.0024414 -1.1680298 0.5349121 -2.263916 1.4425049 -2.9971313 c 0.2716675 0.203186 0.5605469 0.3777466 0.8435669 0.5623169 c 0.166626 0.1086426 0.3258667 0.2287598 0.4960938 0.3307495 c 0.5163574 0.3093872 1.0464478 0.5924072 1.59198 0.8378906 c 0.1845703 0.0820313 0.4013672 0.0463867 0.5488281 -0.0932617 s 0.1958008 -0.3540039 0.1225586 -0.543457 l -0.0556641 -0.1357422 c -0.0234375 -0.0570679 -0.0576782 -0.140686 -0.092041 -0.2249756 c -0.0127563 -0.031311 -0.0262451 -0.0645752 -0.0402832 -0.0992432 c -0.0437012 -0.1079102 -0.0928955 -0.2304077 -0.1469727 -0.3672485 c -0.0074463 -0.0189209 -0.015686 -0.0401611 -0.0233154 -0.0595703 c -0.0512085 -0.130127 -0.1063232 -0.272583 -0.1634521 -0.4226074 c -0.0106812 -0.0279541 -0.020874 -0.0542603 -0.0316772 -0.0827637 c -0.0616455 -0.1629028 -0.1258545 -0.3370361 -0.190918 -0.5167236 c -0.0072021 -0.0198364 -0.0144043 -0.0403442 -0.0216064 -0.0603638 h 1.2883911 c 0.0305176 0.0310059 0.0612183 0.0549927 0.0917358 0.0855713 c 0.3644409 0.3655396 0.7299805 0.7105713 1.097229 1.0232544 c 0.0291748 0.0249023 0.0583496 0.0462646 0.0875854 0.0708618 c 0.3336182 0.2799683 0.6688232 0.5356445 1.0053101 0.7719727 c 0.0692139 0.0487671 0.1382446 0.1019287 0.2073975 0.1488037 c 0.3126831 0.2108154 0.6273193 0.3967285 0.9430542 0.5698853 c 0.1175537 0.0647583 0.2349854 0.130249 0.352478 0.1893311 c 0.3013916 0.1513672 0.6045532 0.2832642 0.9091797 0.4003906 c 0.0529175 0.0200806 0.1061401 0.0510864 0.1590576 0.0700073 c 0.0561523 0.3779297 0.0576172 0.762207 0.003418 1.1264648 c 0 0 0 0.0004883 0 0.0009766 l -0.1801758 1.2319336 c -0.2631836 1.8588867 -1.8818359 3.2607422 -3.7651367 3.2607422 h -1.25 c -1.2680664 0 -2.4863281 -0.4536133 -3.4331055 -1.2788086 c -0.9677734 -0.8349609 -1.5732422 -1.9453125 -1.7514648 -3.2099609 c -0.0267944 -0.196167 -0.045166 -0.3833008 -0.0452881 -0.579834 c 0.000061 -0.0023193 0.0013428 -0.0042725 0.0013428 -0.0065918 C 51.1914063 40.1856651 51.1907959 40.1848717 51.1907959 40.1838341 z M 55.1292725 35.3117027 c -0.1638184 -0.4940796 -0.3063354 -0.9614258 -0.4090576 -1.3691406 c 0.3126831 0.4121704 0.7032471 0.8833618 1.1268921 1.3691406 H 55.1292725 z M 40.4755859 53.1725426 c -2.3105469 -1.9858398 -3.6357422 -4.8730469 -3.6357422 -7.9208984 v -1.4799805 v -1.4599609 v -4.5698242 v -4.2841797 c 0.0421143 0.057373 0.0977173 0.1262817 0.1427002 0.1862183 c 0.0758057 0.1010742 0.1520386 0.1998291 0.2357788 0.3075562 c 0.1314087 0.1690063 0.2733765 0.3432007 0.4241943 0.5256958 c 0.095459 0.1156006 0.1868286 0.2263794 0.289978 0.3461914 c 0.1724243 0.2002563 0.3605957 0.4051514 0.5541992 0.6140137 c 0.1013184 0.109314 0.1939697 0.2143555 0.3010254 0.3251953 c 0.1689453 0.1748047 0.3543091 0.3502808 0.5373535 0.5268555 c -1.4388428 1.0706177 -2.1889648 2.8179321 -1.9295654 4.6243286 l 0.1791992 1.2280273 c 0.3330078 2.3486328 2.3769531 4.1201172 4.7553711 4.1201172 h 1.25 c 1.5097656 0 2.9614258 -0.5410156 4.0864258 -1.5219727 c 1.1376953 -0.980957 1.8793945 -2.3408203 2.0883789 -3.8300781 c 0.010437 -0.0753784 0.0093384 -0.1491089 0.0171509 -0.2231445 h 0.4558716 c 0.0078735 0.074585 0.0067139 0.1484375 0.0172119 0.2246094 c 0.2089844 1.487793 0.9506836 2.8476563 2.0864258 3.8271484 c 1.1269531 0.9824219 2.5786133 1.5234375 4.0883789 1.5234375 h 1.25 c 2.378418 0 4.4228516 -1.7714844 4.7548828 -4.1181641 l 0.1796875 -1.2299805 c 0.0692139 -0.4661255 0.0488892 -0.9411621 -0.0220337 -1.4160767 c 0.0602417 -0.1271362 0.0841675 -0.2686157 0.0274048 -0.4022827 c -0.0131836 -0.0307617 -1.1079102 -2.6591797 -0.1435547 -4.5751953 c 0.0253296 0.1425781 0.0522461 0.2964478 0.0802612 0.460022 c 0.0148315 0.0864258 0.0306396 0.182251 0.0460205 0.2738647 c 0.0136719 0.0813599 0.0267944 0.1581421 0.0408325 0.2432251 c 0.0136719 0.0830688 0.027832 0.1734009 0.041748 0.2597656 c 0.0166016 0.1029663 0.032959 0.2026978 0.0498047 0.3099365 c 0.0064697 0.0413208 0.0129395 0.0858154 0.0194702 0.1277466 c 0.0864868 0.5579224 0.1742554 1.1630249 0.2536621 1.7880859 c 0.0026855 0.0209961 0.0050659 0.0423584 0.0076904 0.0632935 c 0.0253296 0.201355 0.0500488 0.4040527 0.0732422 0.607605 c 0.0096436 0.0848999 0.0180664 0.1699219 0.0272827 0.2549438 c 0.0148315 0.1365967 0.0300293 0.2730713 0.0435791 0.4093628 v 4.4536133 v 1.4799805 c 0 3.0478516 -1.3251953 5.9350586 -3.6347656 7.9199219 l -1.7005615 1.458313 l -0.2720947 0.2301636 c -0.0007935 0.0006714 -0.0010986 0.00177 -0.0018921 0.0025024 c -0.0005493 0.0004883 -0.0014648 0.0004272 -0.0020142 0.0009155 l -0.6535645 0.5635986 l -0.880127 0.7547607 c -0.7905273 0.6777344 -1.6704102 1.2070313 -2.6171875 1.5742188 c -1.0909424 0.4266357 -2.2463989 0.6385498 -3.3980713 0.6380615 c -1.1515503 -0.0011597 -2.2993164 -0.2147827 -3.3753662 -0.6390381 C 45.6787109 57.3956871 44.7993164 56.8663902 44 56.1818199 l -1.5376587 -1.317749 c -0.0001831 -0.0001831 -0.0002441 -0.0004272 -0.0004272 -0.0006104 l -0.4404297 -0.3803711 c -0.0107422 -0.0092773 -0.0250854 -0.0116577 -0.036438 -0.0199585 L 40.4755859 53.1725426 z M 57.3652344 56.3331871 v 3.6982422 c 0 1.362793 -0.6713867 2.6450195 -1.796875 3.4306641 c -1.6376953 1.1445274 -3.5654297 1.7495079 -5.5732422 1.7495079 c -2.0019531 0 -3.9257813 -0.6049805 -5.5639648 -1.7499962 c -1.1245117 -0.7851563 -1.7958984 -2.0678711 -1.7958984 -3.4301758 v -3.6964722 l 0.7094727 0.6066284 c 0.8852539 0.7583008 1.862793 1.3461914 2.9018555 1.7456055 C 47.4311523 59.1544762 48.7290039 59.4015465 50 59.4015465 c 1.0131226 0 2.0149536 -0.1571045 2.9900513 -0.4552612 c 0.2576294 -0.0777588 0.5144043 -0.159668 0.7662964 -0.2581177 c 1.050293 -0.4077148 2.0273438 -0.9956055 2.9052734 -1.7480469 L 57.3652344 56.3331871 z M 49.5 82.5616989 H 32.809082 v -4.0463867 c 0 -0.2763672 -0.2236328 -0.5 -0.5 -0.5 s -0.5 0.2236328 -0.5 0.5 v 4.0463867 H 20.5 v -9.1499023 c 0 -4.7421875 3.0424805 -8.890625 7.5664063 -10.3222618 l 1.2495117 -0.3828125 c 0.1893921 0.4884033 0.5031128 0.9622803 0.9238281 1.4184532 c 0.0047607 0.005188 0.0103149 0.0101318 0.0150757 0.0153198 c 0.1348877 0.1452637 0.2811279 0.2885742 0.4383545 0.4299316 c 0.0215454 0.0194092 0.0454102 0.0383301 0.0673828 0.0576782 c 0.144104 0.1265869 0.2956543 0.251709 0.4573364 0.3748169 c 0.0350342 0.0267334 0.0725098 0.0528564 0.1083374 0.0794067 c 0.1548462 0.114502 0.3156738 0.2276001 0.4854736 0.3388672 c 0.0467529 0.0306396 0.09552 0.0608521 0.1434326 0.0912476 c 0.166748 0.1057739 0.3391113 0.210083 0.519165 0.3126831 c 0.0564575 0.0321655 0.1141968 0.0640259 0.1719971 0.0958862 c 0.1798096 0.0990601 0.3653564 0.1964722 0.5575562 0.2923584 c 0.0648804 0.0323486 0.1303101 0.0645752 0.1965942 0.0965576 c 0.1935425 0.0933838 0.3933105 0.1848755 0.5985107 0.2749634 c 0.0718384 0.0314941 0.1433716 0.0630493 0.2166748 0.0941772 c 0.2093506 0.0888672 0.4254761 0.1755981 0.6462402 0.2609253 c 0.0758667 0.0293579 0.1506958 0.059021 0.2279053 0.0878906 c 0.2289429 0.0856934 0.46521 0.1688843 0.7056274 0.2506714 c 0.0753784 0.0256958 0.1489258 0.0518188 0.2254028 0.0770874 c 0.2539063 0.0838013 0.515564 0.1647339 0.7814331 0.2440796 c 0.0696411 0.020813 0.137085 0.0424194 0.2075806 0.0629272 c 0.2901001 0.0843506 0.588501 0.1653442 0.8921509 0.2442627 c 0.0510254 0.0133057 0.0999146 0.0274048 0.1513062 0.0405273 c 0.6833496 0.1742554 1.3996582 0.3344116 2.1469116 0.4796143 v 7.6864624 c -0.5057373 0.2017212 -0.8652344 0.6941528 -0.8652344 1.2709351 v 0.5097656 c 0 0.7553711 0.6147461 1.3701172 1.3701172 1.3701172 h 0.0097656 c 0.7553711 0 1.3701172 -0.6147461 1.3701172 -1.3701172 v -0.5097656 c 0 -0.5822754 -0.3668823 -1.0776367 -0.8847656 -1.2756348 v -7.510376 c 2.394043 0.4064941 4.9842529 0.6494751 7.7304688 0.7030029 c 0.1849365 0.0073853 0.3777466 0.0068359 0.5693359 0.0073853 V 82.5616989 z M 40.7001953 64.2609177 c -0.2763672 0 -0.5 0.2236328 -0.5 0.5 v 0.8226929 c -0.2817383 -0.1723022 -0.4799805 -0.4688721 -0.4799805 -0.8226929 c 0 -0.5351563 0.4394531 -0.970211 0.9799805 -0.970211 s 0.9799805 0.4350548 0.9799805 0.970211 c 0 0.3538208 -0.1982422 0.6503906 -0.4799805 0.8226929 v -0.8226929 C 41.2001953 64.4845505 40.9765625 64.2609177 40.7001953 64.2609177 z M 41.0849609 77.3844528 v 0.5097656 c 0 0.2041016 -0.1660156 0.3701172 -0.3701172 0.3701172 h -0.0097656 c -0.2041016 0 -0.3701172 -0.1660156 -0.3701172 -0.3701172 v -0.5097656 c 0 -0.2041016 0.1660156 -0.3701172 0.3798828 -0.3701172 C 40.9189453 77.0143356 41.0849609 77.1803513 41.0849609 77.3844528 z M 49.7250977 68.3116989 c -0.2392578 0.0078125 -0.5063477 0.0004883 -0.7602539 -0.0097656 c -2.7714844 -0.0540161 -5.3724976 -0.3013306 -7.7646484 -0.7180176 v -0.914856 c 0.848938 -0.2230835 1.4799805 -0.9901123 1.4799805 -1.9081421 c 0 -1.086422 -0.8881836 -1.970211 -1.9799805 -1.970211 s -1.9799805 0.8837891 -1.9799805 1.970211 c 0 0.9180298 0.6310425 1.6850586 1.4799805 1.9081421 v 0.7359619 c -5.7510986 -1.1466675 -9.5956421 -3.2127075 -10.0634766 -5.4566002 c -0.0341797 -0.1240234 -0.0517578 -0.2675781 -0.0517578 -0.4267578 c 0 -2.552002 4.5905151 -5.0029907 11.4497681 -6.1276855 l 0.1000366 0.0855713 v 4.5518799 c 0 1.6889648 0.831543 3.277832 2.2236328 4.2499962 c 1.8066406 1.2626953 3.9287109 1.9301758 6.1367188 1.9301758 c 2.2143555 0 4.3398438 -0.6674805 6.1459961 -1.9296875 c 1.3925781 -0.9726524 2.2241211 -2.5615196 2.2241211 -4.2504845 v -4.5563354 l 0.0957642 -0.0821533 l 0.0014038 -0.0011597 c 6.8603516 1.1245117 11.4526367 3.5771484 11.4526367 6.1298828 c 0 0.1531372 -0.0186768 0.2921143 -0.0568237 0.4401855 c -0.0015259 0.0062256 -0.0062866 0.0110474 -0.0076294 0.017334 c -0.4602051 2.2020836 -4.3709106 4.2939415 -10.0507813 5.4246788 v -0.7348022 c 0.848938 -0.2230835 1.4799805 -0.9901123 1.4799805 -1.9081421 c 0 -1.086422 -0.8881836 -1.970211 -1.9799805 -1.970211 c -1.0859375 0 -1.9697266 0.8837891 -1.9697266 1.970211 c 0 0.9170532 0.6266479 1.6832275 1.4697266 1.9072876 v 0.921936 c -2.4222412 0.4226685 -5.0305786 0.6638184 -7.7641602 0.711792 C 50.6904297 68.3116989 50.3178711 68.2970505 50 68.3116989 H 49.7250977 z M 59.2998047 64.2609177 c -0.2763672 0 -0.5 0.2236328 -0.5 0.5 v 0.8190918 c -0.2757568 -0.1729126 -0.4697266 -0.4675903 -0.4697266 -0.8190918 c 0 -0.5351563 0.4350586 -0.970211 0.9697266 -0.970211 c 0.5405273 0 0.9799805 0.4350548 0.9799805 0.970211 c 0 0.3538208 -0.1982422 0.6503906 -0.4799805 0.8226929 v -0.8226929 C 59.7998047 64.4845505 59.5761719 64.2609177 59.2998047 64.2609177 z M 59.668457 77.3844528 v 0.5097656 c 0 0.2041016 -0.1660156 0.3701172 -0.3701172 0.3701172 h -0.0102539 c -0.2036133 0 -0.3696289 -0.1660156 -0.3696289 -0.3701172 v -0.5097656 c 0 -0.2041016 0.1660156 -0.3701172 0.3798828 -0.3701172 C 59.5024414 77.0143356 59.668457 77.1803513 59.668457 77.3844528 z M 79.5 82.5616989 H 68.190918 v -4.0463867 c 0 -0.2763672 -0.2236328 -0.5 -0.5 -0.5 s -0.5 0.2236328 -0.5 0.5 v 4.0463867 H 50.5 V 69.3071213 c 0.1882935 -0.0011597 0.3778076 0 0.5639648 -0.005188 c 2.7150269 -0.0477905 5.3123779 -0.2866211 7.7358398 -0.699585 v 7.5060425 c -0.5140991 0.1976318 -0.8813477 0.6932373 -0.8813477 1.276062 v 0.5097656 c 0 0.7553711 0.6142578 1.3701172 1.3696289 1.3701172 h 0.0102539 c 0.7553711 0 1.3701172 -0.6147461 1.3701172 -1.3701172 v -0.5097656 c 0 -0.576355 -0.3589478 -1.0685425 -0.8686523 -1.2705688 v -7.6915894 c 0.0792847 -0.0153198 0.1598511 -0.0299683 0.2384033 -0.0455933 c 0.0786743 -0.015686 0.1608887 -0.0297241 0.2388916 -0.0457153 c 0.2572021 -0.0527344 0.5050049 -0.1097412 0.7543335 -0.1660767 c 0.1282959 -0.0289917 0.2602539 -0.0563965 0.3864746 -0.0863037 c 0.2402954 -0.0569458 0.4716797 -0.1175537 0.7041016 -0.1777344 c 0.1257935 -0.0325928 0.2544556 -0.0639038 0.3779297 -0.0974731 c 0.2323608 -0.0630493 0.4562988 -0.1293945 0.6802979 -0.1956787 c 0.1132813 -0.0335693 0.2286987 -0.0662231 0.3397827 -0.1005859 c 0.2279053 -0.0704956 0.4478149 -0.1436768 0.6664429 -0.2174683 c 0.0966187 -0.0326538 0.1948242 -0.0646362 0.2895508 -0.0979614 c 0.2270508 -0.0796509 0.4462891 -0.1618042 0.6626587 -0.2449951 c 0.0750732 -0.0288696 0.151123 -0.0574341 0.2248535 -0.086792 c 0.2270508 -0.0901489 0.446228 -0.1825562 0.6606445 -0.2765503 c 0.0536499 -0.0234985 0.1075439 -0.046936 0.1604004 -0.0707397 c 0.2265625 -0.1017456 0.4449463 -0.2057495 0.6564941 -0.3117065 c 0.0320435 -0.0161133 0.0640259 -0.0321045 0.0957031 -0.0483398 c 0.2260742 -0.1151733 0.4431152 -0.2324829 0.6512451 -0.3522339 c 0.0101318 -0.0057983 0.0200195 -0.0115967 0.0300903 -0.0174561 c 1.5802002 -0.9144897 2.6390991 -1.956356 3.0623779 -3.0737877 l 1.2389526 0.3789673 C 76.4536133 64.5197067 79.5 68.6686325 79.5 73.4117966 V 82.5616989 z" stroke-linecap="round"/>
</g>
		<g transform="matrix(8.6572 0 0 8.6572 143.014 -165.8613)" id="112451">
<path style="stroke: none; stroke-width: 1; stroke-dasharray: none; stroke-linecap: butt; stroke-dashoffset: 0; stroke-linejoin: miter; stroke-miterlimit: 4; is-custom-font: none; font-file-url: none; fill: rgb(0,0,0); fill-rule: nonzero; opacity: 1;" vector-effect="non-scaling-stroke" transform=" translate(-66.52, -38.5965)" d="M 65.6845703 37.6564293 c -0.1357422 0.2407227 -0.050293 0.5454102 0.1904297 0.6806641 c 0.3359375 0.1894531 0.5449219 0.5551758 0.5449219 0.9545898 c 0 0.2763672 0.2236328 0.5 0.5 0.5 s 0.5 -0.2236328 0.5 -0.5 c 0 -0.7602539 -0.4042969 -1.4599609 -1.0546875 -1.8256836 C 66.1230469 37.3297691 65.8193359 37.4161949 65.6845703 37.6564293 z" stroke-linecap="round"/>
</g>
		<g transform="matrix(8.6572 0 0 8.6572 132.4101 -151.0579)" id="112451">
<path style="stroke: none; stroke-width: 1; stroke-dasharray: none; stroke-linecap: butt; stroke-dashoffset: 0; stroke-linejoin: miter; stroke-miterlimit: 4; is-custom-font: none; font-file-url: none; fill: rgb(0,0,0); fill-rule: nonzero; opacity: 1;" vector-effect="non-scaling-stroke" transform=" translate(-65.295, -40.3066)" d="M 65.4399414 39.4816246 c -0.2763672 0 -0.5 0.2236328 -0.5 0.5 c 0 0.1386719 -0.065918 0.2265625 -0.121582 0.2758789 c -0.206543 0.1831055 -0.2255859 0.4990234 -0.0424805 0.7055664 c 0.0986328 0.1113281 0.2363281 0.168457 0.3740234 0.168457 c 0.1181641 0 0.2363281 -0.0415039 0.331543 -0.1259766 c 0.2915039 -0.2578125 0.4584961 -0.6313477 0.4584961 -1.0239258 C 65.9399414 39.7052574 65.7163086 39.4816246 65.4399414 39.4816246 z" stroke-linecap="round"/>
</g>
		<g transform="matrix(8.6572 0 0 8.6572 -141.114 -166.7244)" id="112451">
<path style="stroke: none; stroke-width: 1; stroke-dasharray: none; stroke-linecap: butt; stroke-dashoffset: 0; stroke-linejoin: miter; stroke-miterlimit: 4; is-custom-font: none; font-file-url: none; fill: rgb(0,0,0); fill-rule: nonzero; opacity: 1;" vector-effect="non-scaling-stroke" transform=" translate(-33.7, -38.4968)" d="M 34.8168945 37.5870934 c -0.0639648 -0.2695313 -0.3349609 -0.434082 -0.6015625 -0.3720703 c -0.96875 0.2285156 -1.6455078 1.0825195 -1.6455078 2.0766602 c 0 0.2763672 0.2236328 0.5 0.5 0.5 s 0.5 -0.2236328 0.5 -0.5 c 0 -0.5195313 0.3681641 -0.9833984 0.875 -1.1030273 C 34.7138672 38.1251793 34.8798828 37.855648 34.8168945 37.5870934 z" stroke-linecap="round"/>
</g>
		<g transform="matrix(8.6572 0 0 8.6572 -61.1476 -152.4258)" id="112451">
<path style="stroke: none; stroke-width: 1; stroke-dasharray: none; stroke-linecap: butt; stroke-dashoffset: 0; stroke-linejoin: miter; stroke-miterlimit: 4; is-custom-font: none; font-file-url: none; fill: rgb(0,0,0); fill-rule: nonzero; opacity: 1;" vector-effect="non-scaling-stroke" transform=" translate(-42.937, -40.1486)" d="M 41.7905273 42.062191 c 0.1455078 0 0.2900391 -0.0634766 0.3886719 -0.1850586 l 2.2919922 -2.8271484 c 0.1743164 -0.2143555 0.1411133 -0.5292969 -0.0732422 -0.703125 c -0.2148438 -0.1748047 -0.5302734 -0.140625 -0.703125 0.0732422 l -2.2919922 2.8271484 c -0.1743164 0.2143555 -0.1411133 0.5292969 0.0732422 0.703125 C 41.5688477 42.0255699 41.6801758 42.062191 41.7905273 42.062191 z" stroke-linecap="round"/>
</g>
		<g transform="matrix(8.6572 0 0 8.6572 -50.0682 -141.3477)" id="112451">
<path style="stroke: none; stroke-width: 1; stroke-dasharray: none; stroke-linecap: butt; stroke-dashoffset: 0; stroke-linejoin: miter; stroke-miterlimit: 4; is-custom-font: none; font-file-url: none; fill: rgb(0,0,0); fill-rule: nonzero; opacity: 1;" vector-effect="non-scaling-stroke" transform=" translate(-44.2168, -41.4281)" d="M 42.7558594 43.2301598 c 0.0927734 0.0751953 0.2041016 0.1118164 0.3144531 0.1118164 c 0.1459961 0 0.2900391 -0.0634766 0.3886719 -0.1850586 l 2.2919922 -2.8276367 c 0.1743164 -0.2148438 0.1411133 -0.5292969 -0.0732422 -0.703125 c -0.215332 -0.1748047 -0.5297852 -0.140625 -0.703125 0.0732422 l -2.2919922 2.8276367 C 42.5083008 42.7418785 42.5415039 43.0563316 42.7558594 43.2301598 z" stroke-linecap="round"/>
</g>
		<g transform="matrix(8.6572 0 0 8.6572 50.0645 -152.4258)" id="112451">
<path style="stroke: none; stroke-width: 1; stroke-dasharray: none; stroke-linecap: butt; stroke-dashoffset: 0; stroke-linejoin: miter; stroke-miterlimit: 4; is-custom-font: none; font-file-url: none; fill: rgb(0,0,0); fill-rule: nonzero; opacity: 1;" vector-effect="non-scaling-stroke" transform=" translate(-55.7832, -40.1486)" d="M 54.6367188 42.062191 c 0.1455078 0 0.2900391 -0.0634766 0.3886719 -0.1850586 l 2.2919922 -2.8271484 c 0.1743164 -0.2143555 0.1411133 -0.5292969 -0.0732422 -0.703125 c -0.2148438 -0.1748047 -0.5302734 -0.140625 -0.703125 0.0732422 l -2.2919922 2.8271484 c -0.1743164 0.2143555 -0.1411133 0.5292969 0.0732422 0.703125 C 54.4150391 42.0255699 54.5263672 42.062191 54.6367188 42.062191 z" stroke-linecap="round"/>
</g>
		<g transform="matrix(8.6572 0 0 8.6572 61.1438 -141.3477)" id="112451">
<path style="stroke: none; stroke-width: 1; stroke-dasharray: none; stroke-linecap: butt; stroke-dashoffset: 0; stroke-linejoin: miter; stroke-miterlimit: 4; is-custom-font: none; font-file-url: none; fill: rgb(0,0,0); fill-rule: nonzero; opacity: 1;" vector-effect="non-scaling-stroke" transform=" translate(-57.063, -41.4281)" d="M 55.6020508 43.2301598 c 0.0927734 0.0751953 0.2041016 0.1118164 0.3144531 0.1118164 c 0.1459808 0 0.2900391 -0.0634766 0.3886719 -0.1850586 l 2.2919922 -2.8276367 c 0.1743164 -0.2148438 0.1411133 -0.5292969 -0.0732422 -0.703125 c -0.2158203 -0.1748047 -0.5302734 -0.140625 -0.703125 0.0732422 l -2.2919922 2.8276367 C 55.3544922 42.7418785 55.3876953 43.0563316 55.6020508 43.2301598 z" stroke-linecap="round"/>
</g>
		<g transform="matrix(8.6572 0 0 8.6572 -75.185 -298.879)" id="112451">
<path style="stroke: none; stroke-width: 1; stroke-dasharray: none; stroke-linecap: butt; stroke-dashoffset: 0; stroke-linejoin: miter; stroke-miterlimit: 4; is-custom-font: none; font-file-url: none; fill: rgb(0,0,0); fill-rule: nonzero; opacity: 1;" vector-effect="non-scaling-stroke" transform=" translate(-41.3155, -23.2315)" d="M 46.2216797 20.4318199 c 0.2714844 0.0317383 0.5258789 -0.1518555 0.5644531 -0.4248047 c 0.0390625 -0.2724609 -0.1494141 -0.5253906 -0.4223633 -0.5649414 c -0.2592773 -0.0375977 -6.4389648 -0.8417969 -10.4672852 6.8886719 c -0.1274414 0.2446289 -0.0327148 0.546875 0.2124023 0.6743164 c 0.0737305 0.0385742 0.152832 0.0566406 0.2304688 0.0566406 c 0.1806641 0 0.3549805 -0.0976563 0.4438477 -0.269043 C 40.4711914 19.7159996 45.9848633 20.3976402 46.2216797 20.4318199 z" stroke-linecap="round"/>
</g>
</g>
</g>
</svg>